<svg width="431" height="450" xmlns="http://www.w3.org/2000/svg">
 <g>
  <title>background</title>
  <rect fill="none" id="canvas_background" height="452" width="433" y="-1" x="-1"/>
 </g>

 <g>
  <title>Layer 1</title>
  <path id="svg_2" d="m213,219c0,0 190,-108 189.5,-108c0.5,0 2.5,221 2,221c0.5,0 -190.5,109 -190.5,109c0,0 -1,-222 -1,-222z" opacity="undefined" fill="#db5a43"/>
  <path id="svg_4" d="m211,222c0,0 193,-108 192,-108c-1,0 -193,-111 -193.5,-111c0.5,0 -189.5,109 -189.5,109c0,0 190,110 191,110z" opacity="undefined" stroke-dasharray="null" stroke-width="null" fill="#ef6e4a"/>
  <path id="svg_5" d="m22,113c0,0 192,109 191.5,109c0.5,0 0.5,221 0,221c0.5,0 -189.5,-110 -190.5,-110c-1,0 -1,-220 -1,-220z" opacity="undefined" stroke-dasharray="null" stroke-width="null" fill="#9e2d22"/>
  <!-- Created with Method Draw - http://github.com/duopixel/Method-Draw/ -->
 </g>
</svg>