<svg width="48" height="64" xmlns="http://www.w3.org/2000/svg">
 <g>
  <title>background</title>
  <rect fill="none" id="canvas_background" height="66" width="50" y="-1" x="-1"/>
 </g>

 <g>
  <title>Layer 1</title>
  <path id="svg_1" d="m23.5,-0.45s-18.854,-0.62 -22.743,20.295l0,14.255s0.16,1.525 4.45,4.62s15.387,11.806 18.293,11.806s14.007,-8.718 18.294,-11.815s4.45,-4.62 4.45,-4.62l0,-14.246c-3.89,-20.915 -22.744,-20.295 -22.744,-20.295zm12.9,28.05l-25.8,0l0,-7.766c2.6,-10.374 12.9,-10.518 12.9,-10.518s10.3,0.143 12.9,10.53l0,7.754zm-12.9,26.134s-2.922,-0.286 -5.2,-1.874l-17.543,-12.482l0,21.566s0.13,2.5 2.892,2.5l39.7,0c2.763,0 2.892,-2.5 2.892,-2.5l0,-21.566l-17.541,12.482c-2.287,1.588 -5.2,1.874 -5.2,1.874z"/>
 </g>
</svg>